<svg xmlns="http://www.w3.org/2000/svg" xmlns:xlink="http://www.w3.org/1999/xlink" width="5000" zoomAndPan="magnify" viewBox="0 0 3750 749.999995" height="1000" preserveAspectRatio="xMidYMid meet" version="1.0"><defs><clipPath id="39423bd761"><path d="M 2530.859375 262.5 L 2755.859375 262.5 L 2755.859375 487.5 L 2530.859375 487.5 Z M 2530.859375 262.5 " clip-rule="nonzero"/></clipPath><clipPath id="29abc3303c"><path d="M 2643.359375 262.5 C 2581.226562 262.5 2530.859375 312.867188 2530.859375 375 C 2530.859375 437.132812 2581.226562 487.5 2643.359375 487.5 C 2705.492188 487.5 2755.859375 437.132812 2755.859375 375 C 2755.859375 312.867188 2705.492188 262.5 2643.359375 262.5 Z M 2643.359375 262.5 " clip-rule="nonzero"/></clipPath></defs><g clip-path="url(#39423bd761)"><g clip-path="url(#29abc3303c)"><path fill="#aebe96" d="M 2530.859375 262.5 L 2755.859375 262.5 L 2755.859375 487.5 L 2530.859375 487.5 Z M 2530.859375 262.5 " fill-opacity="1" fill-rule="nonzero"/></g></g><path fill="#889b6d" d="M 3750.988281 1351.6875 L 20.734375 1351.6875 L 20.734375 -1.402344 C 20.734375 -1.402344 578.332031 376.378906 1253.386719 376.378906 C 1844.832031 376.378906 2396.003906 -1.402344 2948.207031 -1.402344 C 3490.195312 -1.402344 3750.9375 220.78125 3750.9375 220.78125 Z M 3750.988281 1351.6875 " fill-opacity="1" fill-rule="nonzero"/></svg>